<?xml version="1.0" encoding="UTF-8"?>
<!-- This file is generated by npm run build:icons -->
<svg xmlns="http://www.w3.org/2000/svg" xmlns:xlink="http://www.w3.org/1999/xlink" width="0" height="0">
<defs>
<symbol viewBox="0 0 12 12" id="back-arrow">
<path d="M0.077498 6.38091C0.125092 6.50366 0.196458 6.61581 0.287499 6.71091L5.2875 11.7109C5.38074 11.8042 5.49143 11.8781 5.61325 11.9286C5.73507 11.979 5.86564 12.005 5.9975 12.005C6.2638 12.005 6.51919 11.8992 6.7075 11.7109C6.80074 11.6177 6.8747 11.507 6.92516 11.3852C6.97562 11.2633 7.00159 11.1328 7.00159 11.0009C7.00159 10.7346 6.8958 10.4792 6.7075 10.2909L3.4075 7.00091L10.9975 7.00091C11.2627 7.00091 11.5171 6.89556 11.7046 6.70802C11.8921 6.52048 11.9975 6.26613 11.9975 6.00091C11.9975 5.7357 11.8921 5.48134 11.7046 5.29381C11.5171 5.10627 11.2627 5.00091 10.9975 5.00091L3.4075 5.00091L6.7075 1.71091C6.80123 1.61795 6.87562 1.50735 6.92639 1.38549C6.97716 1.26363 7.0033 1.13292 7.0033 1.00091C7.0033 0.868902 6.97716 0.738196 6.92639 0.616336C6.87562 0.494477 6.80123 0.383877 6.7075 0.290914C6.61454 0.197186 6.50393 0.12279 6.38208 0.072021C6.26022 0.0212521 6.12951 -0.00488523 5.9975 -0.00488524C5.86549 -0.00488526 5.73478 0.0212521 5.61292 0.0720209C5.49106 0.12279 5.38046 0.197186 5.2875 0.290914L0.287499 5.29091C0.196458 5.38602 0.125092 5.49816 0.077498 5.62091C-0.0225195 5.86437 -0.0225196 6.13745 0.077498 6.38091Z" fill="currentColor"></path>
</symbol>
<symbol viewBox="0 0 20 22" id="cart">
<path d="M18.9709 14.9883H4.99233C4.72752 14.9883 4.47356 14.8829 4.28631 14.6954C4.09906 14.5079 3.99387 14.2535 3.99387 13.9883C3.99387 13.7231 4.09906 13.4687 4.28631 13.2812C4.47356 13.0936 4.72752 12.9883 4.99233 12.9883H15.4163C16.0839 12.9883 16.7324 12.765 17.2589 12.3537C17.7853 11.9424 18.1594 11.3668 18.3219 10.7183L19.9693 4.22828C20.0067 4.08069 20.01 3.92649 19.9788 3.77745C19.9477 3.62841 19.883 3.48846 19.7896 3.36828C19.6925 3.24501 19.5678 3.14638 19.4255 3.08036C19.2833 3.01434 19.1275 2.9828 18.9709 2.98828H4.7527C4.5467 2.40473 4.16553 1.89928 3.66144 1.54122C3.15735 1.18316 2.55502 0.990021 1.93702 0.988281H0.998466C0.733657 0.988281 0.479693 1.09364 0.292444 1.28117C0.105195 1.46871 0 1.72306 0 1.98828C0 2.2535 0.105195 2.50785 0.292444 2.69539C0.479693 2.88292 0.733657 2.98828 0.998466 2.98828H1.93702C2.16511 2.98163 2.38859 3.05341 2.57026 3.19169C2.75193 3.32998 2.88082 3.52641 2.93549 3.74828L2.9954 4.22828L4.72275 10.9883C3.92832 11.0241 3.18063 11.3745 2.64416 11.9624C2.10769 12.5503 1.82639 13.3276 1.86214 14.1233C1.89789 14.9189 2.24776 15.6678 2.83478 16.2051C3.42181 16.7424 4.1979 17.0241 4.99233 16.9883H5.17206C5.00784 17.4414 4.95508 17.9275 5.01822 18.4054C5.08137 18.8833 5.25857 19.3389 5.53482 19.7336C5.81106 20.1284 6.17823 20.4507 6.60521 20.6731C7.03219 20.8956 7.50642 21.0118 7.98773 21.0118C8.46904 21.0118 8.94327 20.8956 9.37025 20.6731C9.79724 20.4507 10.1644 20.1284 10.4406 19.7336C10.7169 19.3389 10.8941 18.8833 10.9572 18.4054C11.0204 17.9275 10.9676 17.4414 10.8034 16.9883H13.1598C12.9956 17.4414 12.9428 17.9275 13.006 18.4054C13.0691 18.8833 13.2463 19.3389 13.5225 19.7336C13.7988 20.1284 14.166 20.4507 14.5929 20.6731C15.0199 20.8956 15.4941 21.0118 15.9755 21.0118C16.4568 21.0118 16.931 20.8956 17.358 20.6731C17.785 20.4507 18.1521 20.1284 18.4284 19.7336C18.7046 19.3389 18.8818 18.8833 18.945 18.4054C19.0081 17.9275 18.9553 17.4414 18.7911 16.9883H18.9709C19.2357 16.9883 19.4896 16.8829 19.6769 16.6954C19.8641 16.5079 19.9693 16.2535 19.9693 15.9883C19.9693 15.7231 19.8641 15.4687 19.6769 15.2812C19.4896 15.0936 19.2357 14.9883 18.9709 14.9883ZM17.6928 4.98828L16.3848 10.2283C16.3302 10.4502 16.2013 10.6466 16.0196 10.7849C15.8379 10.9231 15.6144 10.9949 15.3864 10.9883H6.7696L5.2719 4.98828H17.6928ZM7.98773 18.9883C7.79025 18.9883 7.59721 18.9296 7.43301 18.8198C7.26881 18.7099 7.14084 18.5537 7.06527 18.371C6.9897 18.1882 6.96992 17.9872 7.00845 17.7932C7.04698 17.5992 7.14207 17.421 7.28171 17.2812C7.42135 17.1413 7.59926 17.0461 7.79294 17.0075C7.98662 16.9689 8.18738 16.9887 8.36983 17.0644C8.55227 17.1401 8.70821 17.2683 8.81792 17.4327C8.92764 17.5972 8.9862 17.7905 8.9862 17.9883C8.9862 18.2535 8.881 18.5079 8.69375 18.6954C8.5065 18.8829 8.25254 18.9883 7.98773 18.9883ZM15.9755 18.9883C15.778 18.9883 15.5849 18.9296 15.4207 18.8198C15.2565 18.7099 15.1286 18.5537 15.053 18.371C14.9774 18.1882 14.9577 17.9872 14.9962 17.7932C15.0347 17.5992 15.1298 17.421 15.2694 17.2812C15.4091 17.1413 15.587 17.0461 15.7807 17.0075C15.9744 16.9689 16.1751 16.9887 16.3576 17.0644C16.54 17.1401 16.6959 17.2683 16.8057 17.4327C16.9154 17.5972 16.9739 17.7905 16.9739 17.9883C16.9739 18.2535 16.8687 18.5079 16.6815 18.6954C16.4942 18.8829 16.2403 18.9883 15.9755 18.9883Z" fill="currentColor"></path>
</symbol>
<symbol viewBox="0 0 12 12" id="close">
<path d="M7.40994 5.99909L11.7099 1.70909C11.8982 1.52078 12.004 1.26539 12.004 0.999087C12.004 0.732785 11.8982 0.477391 11.7099 0.289087C11.5216 0.100783 11.2662 -0.00500488 10.9999 -0.00500488C10.7336 -0.00500488 10.4782 0.100783 10.2899 0.289087L5.99994 4.58909L1.70994 0.289087C1.52164 0.100783 1.26624 -0.00500488 0.999939 -0.00500488C0.733637 -0.00500488 0.478243 0.100783 0.289939 0.289087C0.101635 0.477391 -0.00415277 0.732785 -0.00415277 0.999087C-0.00415278 1.26539 0.101635 1.52078 0.289939 1.70909L4.58994 5.99909L0.289939 10.2891C0.196211 10.3821 0.121816 10.4927 0.0710478 10.6145C0.0202791 10.7364 -0.00585938 10.8671 -0.00585938 10.9991C-0.00585938 11.1311 0.0202791 11.2618 0.0710478 11.3837C0.121816 11.5055 0.196211 11.6161 0.289939 11.7091C0.382902 11.8028 0.493503 11.8772 0.615362 11.928C0.737221 11.9787 0.867927 12.0049 0.999939 12.0049C1.13195 12.0049 1.26266 11.9787 1.38452 11.928C1.50638 11.8772 1.61698 11.8028 1.70994 11.7091L5.99994 7.40909L10.2899 11.7091C10.3829 11.8028 10.4935 11.8772 10.6154 11.928C10.7372 11.9787 10.8679 12.0049 10.9999 12.0049C11.132 12.0049 11.2627 11.9787 11.3845 11.928C11.5064 11.8772 11.617 11.8028 11.7099 11.7091C11.8037 11.6161 11.8781 11.5055 11.9288 11.3837C11.9796 11.2618 12.0057 11.1311 12.0057 10.9991C12.0057 10.8671 11.9796 10.7364 11.9288 10.6145C11.8781 10.4927 11.8037 10.3821 11.7099 10.2891L7.40994 5.99909Z" fill="currentColor"></path>
</symbol>
<symbol viewBox="0 0 171 45" id="logo">
<path d="M103.048 18.6932H99.5059V25.0441H94.8574V3.87988H103.507C108.547 3.87988 111.612 6.87659 111.612 11.2014V11.2695C111.595 16.1562 107.781 18.6932 103.048 18.6932ZM106.879 11.2865C106.879 9.20926 105.431 8.08549 103.099 8.08549H99.5059V14.5557H103.201C105.534 14.5557 106.896 13.1595 106.896 11.3546V11.2865H106.879Z" fill="currentColor"></path>
<path d="M124.035 18.6932H120.494V25.0441H115.845V3.87988H124.495C129.535 3.87988 132.6 6.87659 132.6 11.2014V11.2695C132.583 16.1562 128.769 18.6932 124.035 18.6932ZM127.867 11.2865C127.867 9.20926 126.419 8.08549 124.087 8.08549H120.494V14.5557H124.189C126.522 14.5557 127.884 13.1595 127.884 11.3546V11.2865H127.867Z" fill="currentColor"></path>
<path d="M136.48 25.0271V3.87988H141.123V20.8045H151.648V25.0441H136.48V25.0271Z" fill="currentColor"></path>
<path d="M162.242 16.6159V25.0441H157.616V16.701L149.532 3.87988H154.955L159.954 12.3933L165.073 3.89691H170.343L162.242 16.6159Z" fill="currentColor"></path>
<path d="M78.7197 2.1167L66.2856 25.0446H71.5371L78.7197 11.7876L85.8684 24.9767L85.9022 25.0446H91.1537L78.7197 2.1167Z" fill="currentColor"></path>
<path d="M72.0537 41.7986H68.9309V33.5093H72.0537C74.696 33.5093 76.5148 35.2892 76.5148 37.6455C76.5148 39.9848 74.6789 41.7986 72.0537 41.7986ZM72.0537 34.8485H70.4065V40.4764H72.0537C73.821 40.4764 74.9705 39.3067 74.9705 37.6794C74.9705 36.0351 73.821 34.8485 72.0537 34.8485Z" fill="currentColor"></path>
<path d="M88.1552 33.5093V41.7986H86.7443V33.5093H88.1552Z" fill="currentColor"></path>
<path d="M102.857 41.9751C100.259 41.9751 98.5609 40.1098 98.5609 37.6626C98.5609 35.3181 100.344 33.333 102.84 33.333C104.283 33.333 105.166 33.7437 106.032 34.4625L105.116 35.5748C104.47 35.0272 103.842 34.6849 102.789 34.6849C101.261 34.6849 100.106 36.0198 100.106 37.6455C100.106 39.3739 101.227 40.6403 102.925 40.6403C103.706 40.6403 104.419 40.3836 104.929 40.0071V38.4498H102.789V37.1663H106.321V40.6745C105.506 41.3761 104.334 41.9751 102.857 41.9751Z" fill="currentColor"></path>
<path d="M118.314 33.5093V41.7986H116.903V33.5093H118.314Z" fill="currentColor"></path>
<path d="M132.992 41.7986H131.52V34.8654H128.896V33.5093H135.598V34.8654H132.975V41.7986H132.992Z" fill="currentColor"></path>
<path d="M162.759 33.5093H164.218V40.4737H168.579V41.7986H162.759V33.5093Z" fill="currentColor"></path>
<path d="M148.12 36.2798L151.11 41.7987H152.706L148.12 33.333L143.535 41.7987H145.131L148.12 36.2798Z" fill="currentColor"></path>
<path d="M26.0812 0L0.5 44.0922H51.647L26.0812 0ZM16.1863 30.8692H28.1562L22.179 20.5589L26.0812 13.8241L39.8784 37.604H12.2841L16.1863 30.8692Z" fill="currentColor"></path>
</symbol>
</defs>
</svg>
